<svg width="18" height="18" viewBox="0 0 18 18" fill="none" xmlns="http://www.w3.org/2000/svg">
<circle cx="9" cy="9" r="9" fill="#B066FF"/>
<g clip-path="url(#clip0_1933_1730)">
<g clip-path="url(#clip1_1933_1730)">
<path d="M9 3.5C9.13261 3.5 9.25979 3.55268 9.35355 3.64645C9.44732 3.74021 9.5 3.86739 9.5 4V5C9.5 5.13261 9.44732 5.25979 9.35355 5.35355C9.25979 5.44732 9.13261 5.5 9 5.5C8.86739 5.5 8.74021 5.44732 8.64645 5.35355C8.55268 5.25979 8.5 5.13261 8.5 5V4C8.5 3.86739 8.55268 3.74021 8.64645 3.64645C8.74021 3.55268 8.86739 3.5 9 3.5ZM9 12.5C9.13261 12.5 9.25979 12.5527 9.35355 12.6464C9.44732 12.7402 9.5 12.8674 9.5 13V14C9.5 14.1326 9.44732 14.2598 9.35355 14.3536C9.25979 14.4473 9.13261 14.5 9 14.5C8.86739 14.5 8.74021 14.4473 8.64645 14.3536C8.55268 14.2598 8.5 14.1326 8.5 14V13C8.5 12.8674 8.55268 12.7402 8.64645 12.6464C8.74021 12.5527 8.86739 12.5 9 12.5ZM3.5 9C3.5 8.86739 3.55268 8.74021 3.64645 8.64645C3.74021 8.55268 3.86739 8.5 4 8.5H5C5.13261 8.5 5.25979 8.55268 5.35355 8.64645C5.44732 8.74021 5.5 8.86739 5.5 9C5.5 9.13261 5.44732 9.25979 5.35355 9.35355C5.25979 9.44732 5.13261 9.5 5 9.5H4C3.86739 9.5 3.74021 9.44732 3.64645 9.35355C3.55268 9.25979 3.5 9.13261 3.5 9ZM12.5 9C12.5 8.86739 12.5527 8.74021 12.6464 8.64645C12.7402 8.55268 12.8674 8.5 13 8.5H14C14.1326 8.5 14.2598 8.55268 14.3536 8.64645C14.4473 8.74021 14.5 8.86739 14.5 9C14.5 9.13261 14.4473 9.25979 14.3536 9.35355C14.2598 9.44732 14.1326 9.5 14 9.5H13C12.8674 9.5 12.7402 9.44732 12.6464 9.35355C12.5527 9.25979 12.5 9.13261 12.5 9ZM6.5235 11.4765C6.61724 11.5703 6.66989 11.6974 6.66989 11.83C6.66989 11.9626 6.61724 12.0897 6.5235 12.1835L5.8185 12.8885C5.77238 12.9363 5.7172 12.9743 5.6562 13.0006C5.5952 13.0268 5.52959 13.0405 5.4632 13.0411C5.39681 13.0417 5.33097 13.0291 5.26952 13.0039C5.20807 12.9788 5.15225 12.9416 5.1053 12.8947C5.05836 12.8478 5.02123 12.7919 4.99609 12.7305C4.97095 12.669 4.9583 12.6032 4.95887 12.5368C4.95945 12.4704 4.97324 12.4048 4.99945 12.3438C5.02565 12.2828 5.06375 12.2276 5.1115 12.1815L5.8165 11.4765C5.91026 11.3828 6.03742 11.3301 6.17 11.3301C6.30258 11.3301 6.42974 11.3828 6.5235 11.4765ZM12.8885 5.1115C12.9822 5.20526 13.0349 5.33242 13.0349 5.465C13.0349 5.59758 12.9822 5.72474 12.8885 5.8185L12.1835 6.5235C12.1374 6.57126 12.0822 6.60935 12.0212 6.63555C11.9602 6.66176 11.8946 6.67555 11.8282 6.67613C11.7618 6.6767 11.696 6.66405 11.6345 6.63891C11.5731 6.61377 11.5172 6.57664 11.4703 6.5297C11.4234 6.48275 11.3862 6.42693 11.3611 6.36548C11.3359 6.30403 11.3233 6.23819 11.3239 6.1718C11.3245 6.10541 11.3382 6.0398 11.3644 5.9788C11.3907 5.9178 11.4287 5.86262 11.4765 5.8165L12.1815 5.1115C12.2753 5.01776 12.4024 4.96511 12.535 4.96511C12.6676 4.96511 12.7947 5.01776 12.8885 5.1115ZM11.4765 11.4765C11.5703 11.3828 11.6974 11.3301 11.83 11.3301C11.9626 11.3301 12.0897 11.3828 12.1835 11.4765L12.8885 12.1815C12.9363 12.2276 12.9743 12.2828 13.0006 12.3438C13.0268 12.4048 13.0405 12.4704 13.0411 12.5368C13.0417 12.6032 13.0291 12.669 13.0039 12.7305C12.9788 12.7919 12.9416 12.8478 12.8947 12.8947C12.8478 12.9416 12.7919 12.9788 12.7305 13.0039C12.669 13.0291 12.6032 13.0417 12.5368 13.0411C12.4704 13.0405 12.4048 13.0268 12.3438 13.0006C12.2828 12.9743 12.2276 12.9363 12.1815 12.8885L11.4765 12.1835C11.3828 12.0897 11.3301 11.9626 11.3301 11.83C11.3301 11.6974 11.3828 11.5703 11.4765 11.4765ZM5.1115 5.1115C5.20526 5.01776 5.33242 4.96511 5.465 4.96511C5.59758 4.96511 5.72474 5.01776 5.8185 5.1115L6.5235 5.8165C6.61458 5.9108 6.66498 6.0371 6.66384 6.1682C6.6627 6.2993 6.61011 6.42471 6.51741 6.51741C6.42471 6.61011 6.2993 6.6627 6.1682 6.66384C6.0371 6.66498 5.9108 6.61458 5.8165 6.5235L5.1115 5.8185C5.01776 5.72474 4.96511 5.59758 4.96511 5.465C4.96511 5.33242 5.01776 5.20526 5.1115 5.1115ZM9 6.5C8.33696 6.5 7.70107 6.76339 7.23223 7.23223C6.76339 7.70107 6.5 8.33696 6.5 9C6.5 9.66304 6.76339 10.2989 7.23223 10.7678C7.70107 11.2366 8.33696 11.5 9 11.5C9.66304 11.5 10.2989 11.2366 10.7678 10.7678C11.2366 10.2989 11.5 9.66304 11.5 9C11.5 8.33696 11.2366 7.70107 10.7678 7.23223C10.2989 6.76339 9.66304 6.5 9 6.5Z" fill="#4A0099"/>
</g>
</g>
<defs>
<clipPath id="clip0_1933_1730">
<rect width="12" height="12" fill="white" transform="translate(3 3)"/>
</clipPath>
<clipPath id="clip1_1933_1730">
<rect width="12" height="12" fill="white" transform="translate(3 3)"/>
</clipPath>
</defs>
</svg>
