<svg width="18" height="18" viewBox="0 0 18 18" fill="none" xmlns="http://www.w3.org/2000/svg">
<circle cx="9" cy="9" r="9" fill="#4A0099"/>
<path d="M9.16019 14C8.44646 14 7.77677 13.8652 7.15112 13.5957C6.52547 13.3262 5.97883 12.9574 5.5112 12.4894C5.04357 12.0214 4.67479 11.4745 4.40488 10.8489C4.13496 10.2232 4 9.55354 4 8.83981C4 7.73594 4.31755 6.74076 4.95265 5.85427C5.58775 4.96777 6.42624 4.34968 7.4681 4C7.42879 4.8846 7.56431 5.73537 7.87468 6.55231C8.18467 7.36925 8.65344 8.0913 9.28098 8.71846C9.90851 9.346 10.6306 9.81495 11.4471 10.1253C12.2637 10.4357 13.1146 10.5712 14 10.5319C13.6522 11.573 13.0345 12.4113 12.1469 13.0468C11.2592 13.6823 10.2637 14 9.16019 14Z" fill="white"/>
</svg>
