<svg width="212" height="66" viewBox="0 0 212 66" fill="none" xmlns="http://www.w3.org/2000/svg">
<path d="M94.299 9.93246V9.99813C94.2771 10.0529 94.2607 10.1349 94.2498 10.2444C94.2388 10.3539 94.2333 10.4524 94.2333 10.5399C94.2333 10.8792 94.2771 11.2568 94.3647 11.6728C94.4632 12.0777 94.6438 12.5867 94.9065 13.1996L102.18 29.6012L109.207 13.331C109.371 12.926 109.546 12.4827 109.732 12.0011C109.918 11.5195 110.011 11.0325 110.011 10.5399C110.011 10.4086 110 10.2991 109.978 10.2116C109.956 10.1131 109.934 10.0419 109.913 9.99813V9.93246H113.278V9.99813C113.07 10.2061 112.818 10.5782 112.523 11.1146C112.227 11.6509 111.905 12.3131 111.554 13.1011L102.147 33.9848H100.833L91.9184 13.9056C91.7105 13.435 91.4915 12.9807 91.2617 12.5429C91.0428 12.1051 90.8348 11.7111 90.6378 11.3608C90.4408 10.9996 90.2657 10.6986 90.1124 10.4578C89.9592 10.217 89.8552 10.0638 89.8005 9.99813V9.93246H94.299ZM135.672 30.7176C135.672 30.838 135.656 30.9639 135.623 31.0952C135.601 31.2266 135.541 31.336 135.442 31.4236C134.95 31.7957 134.414 32.1405 133.833 32.4579C133.264 32.7644 132.646 33.0325 131.978 33.2624C131.311 33.4922 130.588 33.6674 129.811 33.7878C129.045 33.9191 128.219 33.9848 127.332 33.9848C125.34 33.9848 123.523 33.6947 121.881 33.1146C120.239 32.5236 118.827 31.6917 117.645 30.6191C116.474 29.5465 115.566 28.2604 114.92 26.7609C114.274 25.2504 113.951 23.5758 113.951 21.737C113.951 20.6972 114.083 19.6738 114.345 18.6668C114.619 17.6599 115.013 16.7021 115.527 15.7937C116.042 14.8852 116.677 14.0534 117.432 13.2981C118.187 12.532 119.046 11.8698 120.01 11.3116C120.984 10.7534 122.051 10.321 123.211 10.0145C124.382 9.69714 125.646 9.53843 127.004 9.53843C127.529 9.53843 128.065 9.56579 128.613 9.62052C129.16 9.6643 129.702 9.73544 130.238 9.83395C130.774 9.92151 131.289 10.031 131.781 10.1623C132.285 10.2937 132.761 10.4414 133.21 10.6056L134.326 13.6429L134.195 13.7086C133.768 13.3255 133.275 12.9698 132.717 12.6414C132.159 12.3131 131.562 12.0285 130.928 11.7877C130.293 11.5469 129.625 11.3608 128.925 11.2295C128.235 11.0872 127.534 11.016 126.823 11.016C125.444 11.016 124.18 11.235 123.03 11.6728C121.881 12.0996 120.891 12.7235 120.059 13.5444C119.238 14.3653 118.598 15.3723 118.138 16.5653C117.678 17.7584 117.448 19.1156 117.448 20.637C117.448 22.3116 117.667 23.8658 118.105 25.2997C118.543 26.7335 119.194 27.9758 120.059 29.0266C120.923 30.0773 122.002 30.9037 123.293 31.5057C124.596 32.0967 126.112 32.3922 127.841 32.3922C128.607 32.3922 129.291 32.332 129.893 32.2116C130.495 32.0912 131.004 31.9435 131.42 31.7684C131.836 31.5823 132.148 31.3853 132.356 31.1773C132.575 30.9584 132.684 30.7614 132.684 30.5863V29.946C132.684 29.1798 132.673 28.5176 132.651 27.9594C132.63 27.4012 132.597 26.9196 132.553 26.5146C132.509 26.0987 132.46 25.743 132.405 25.4474C132.35 25.1519 132.285 24.8783 132.208 24.6265V24.5609H136.148V24.6265C136.083 24.8564 136.017 25.13 135.951 25.4474C135.897 25.7539 135.847 26.1206 135.804 26.5474C135.76 26.9743 135.727 27.4778 135.705 28.0579C135.683 28.6271 135.672 29.2892 135.672 30.0445V30.7176ZM140.187 15.3504C140.187 14.42 140.171 13.6101 140.138 12.9205C140.116 12.22 140.083 11.618 140.039 11.1146C140.007 10.6111 139.957 10.1897 139.892 9.85037C139.837 9.51107 139.777 9.22649 139.711 8.99664V8.93096H143.504V8.99664C143.438 9.22649 143.378 9.51107 143.323 9.85037C143.268 10.1897 143.219 10.6111 143.175 11.1146C143.132 11.618 143.099 12.22 143.077 12.9205C143.055 13.6101 143.044 14.42 143.044 15.3504V27.0564C143.044 27.9868 143.055 28.8022 143.077 29.5027C143.099 30.1922 143.132 30.7888 143.175 31.2922C143.219 31.7957 143.268 32.2171 143.323 32.5564C143.378 32.8957 143.438 33.1803 143.504 33.4102V33.4758H139.711V33.4102C139.777 33.1803 139.837 32.8957 139.892 32.5564C139.957 32.2171 140.007 31.7957 140.039 31.2922C140.083 30.7888 140.116 30.1922 140.138 29.5027C140.171 28.8022 140.187 27.9868 140.187 27.0564V15.3504ZM146.82 25.037C146.82 23.8002 147.05 22.6564 147.51 21.6056C147.969 20.5439 148.599 19.6245 149.398 18.8474C150.208 18.0703 151.16 17.4628 152.254 17.025C153.349 16.5872 154.526 16.3683 155.784 16.3683C157.021 16.3683 158.181 16.5763 159.265 16.9922C160.359 17.3972 161.312 17.9773 162.122 18.7325C162.932 19.4877 163.566 20.4071 164.026 21.4907C164.497 22.5743 164.732 23.7892 164.732 25.1355C164.732 26.2629 164.535 27.3465 164.141 28.3863C163.747 29.4261 163.167 30.3455 162.401 31.1445C161.635 31.9435 160.693 32.5838 159.577 33.0654C158.471 33.536 157.196 33.7714 155.751 33.7714C154.526 33.7714 153.371 33.5689 152.287 33.1639C151.204 32.7589 150.257 32.1788 149.447 31.4236C148.637 30.6684 147.997 29.7544 147.526 28.6818C147.055 27.5982 146.82 26.3833 146.82 25.037ZM156.129 32.5728C156.906 32.5728 157.618 32.4196 158.263 32.1131C158.92 31.8067 159.484 31.3634 159.954 30.7833C160.425 30.2032 160.792 29.4972 161.054 28.6654C161.317 27.8335 161.449 26.8922 161.449 25.8415C161.449 24.6594 161.323 23.5648 161.071 22.5579C160.819 21.54 160.442 20.6643 159.938 19.931C159.446 19.1867 158.822 18.6066 158.066 18.1907C157.311 17.7748 156.43 17.5668 155.423 17.5668C154.646 17.5668 153.935 17.7201 153.289 18.0265C152.643 18.322 152.079 18.7544 151.598 19.3235C151.127 19.8927 150.76 20.5932 150.498 21.425C150.235 22.2459 150.104 23.1818 150.104 24.2325C150.104 25.4146 150.23 26.5146 150.481 27.5325C150.744 28.5504 151.127 29.437 151.631 30.1922C152.134 30.9365 152.758 31.5221 153.502 31.949C154.257 32.3649 155.133 32.5728 156.129 32.5728ZM171.283 17.5011C171.972 17.129 172.711 16.8499 173.499 16.6638C174.287 16.4668 175.092 16.3683 175.913 16.3683C177.128 16.3683 178.25 16.5763 179.278 16.9922C180.318 17.3972 181.216 17.9773 181.971 18.7325C182.726 19.4877 183.317 20.4071 183.744 21.4907C184.171 22.5743 184.384 23.7892 184.384 25.1355C184.384 26.2629 184.187 27.3465 183.793 28.3863C183.41 29.4261 182.83 30.3455 182.053 31.1445C181.287 31.9435 180.329 32.5838 179.18 33.0654C178.042 33.536 176.717 33.7714 175.207 33.7714C175.032 33.7714 174.796 33.7659 174.501 33.7549C174.216 33.744 173.899 33.7221 173.549 33.6893C173.198 33.6564 172.826 33.6126 172.432 33.5579C172.038 33.5032 171.655 33.432 171.283 33.3445C170.758 33.2241 170.227 33.0927 169.69 32.9505C169.165 32.7972 168.661 32.6276 168.18 32.4415C168.224 32.2773 168.262 32.0037 168.295 31.6206C168.328 31.2266 168.35 30.8052 168.36 30.3564C168.382 29.9077 168.399 29.4698 168.41 29.043C168.421 28.6052 168.426 28.2549 168.426 27.9922V15.3504C168.426 14.42 168.41 13.6101 168.377 12.9205C168.355 12.22 168.322 11.618 168.278 11.1146C168.246 10.6111 168.196 10.1897 168.131 9.85037C168.076 9.51107 168.016 9.22649 167.95 8.99664V8.93096H171.743V8.99664C171.677 9.22649 171.617 9.51107 171.562 9.85037C171.507 10.1897 171.458 10.6111 171.414 11.1146C171.37 11.618 171.338 12.22 171.316 12.9205C171.294 13.6101 171.283 14.42 171.283 15.3504V17.5011ZM171.283 27.7295C171.283 28.6161 171.288 29.3494 171.299 29.9295C171.321 30.5097 171.349 30.9748 171.381 31.3251C171.841 31.6753 172.465 31.9708 173.253 32.2116C174.041 32.4524 174.906 32.5728 175.847 32.5728C176.624 32.5728 177.336 32.4196 177.981 32.1131C178.627 31.8067 179.18 31.3634 179.64 30.7833C180.099 30.2032 180.455 29.4972 180.707 28.6654C180.969 27.8335 181.101 26.8922 181.101 25.8415C181.101 24.6594 180.991 23.5648 180.772 22.5579C180.554 21.54 180.214 20.6643 179.755 19.931C179.295 19.1867 178.709 18.6066 177.998 18.1907C177.286 17.7748 176.438 17.5668 175.453 17.5668C174.621 17.5668 173.844 17.7365 173.122 18.0758C172.399 18.4151 171.786 18.9076 171.283 19.5534V27.7295ZM186.749 28.6325C186.749 27.7678 186.924 27.0181 187.274 26.3833C187.635 25.7484 188.111 25.2066 188.702 24.7579C189.293 24.3091 189.967 23.9479 190.722 23.6743C191.477 23.3897 192.26 23.1708 193.07 23.0176C193.879 22.8534 194.678 22.7439 195.467 22.6892C196.255 22.6236 196.977 22.5852 197.634 22.5743V21.737C197.634 21.0146 197.541 20.3907 197.355 19.8653C197.169 19.34 196.906 18.9076 196.567 18.5683C196.227 18.2181 195.817 17.9608 195.335 17.7967C194.865 17.6215 194.345 17.534 193.776 17.534C193.381 17.534 192.993 17.5668 192.61 17.6325C192.227 17.6982 191.827 17.8076 191.411 17.9608C191.006 18.1141 190.574 18.322 190.114 18.5847C189.666 18.8474 189.178 19.1813 188.653 19.5862L188.489 19.4877L189.605 17.1728C189.967 17.0086 190.322 16.8773 190.673 16.7788C191.023 16.6693 191.378 16.5817 191.74 16.5161C192.101 16.4504 192.468 16.4066 192.84 16.3847C193.223 16.3519 193.622 16.3355 194.038 16.3355C195.187 16.3355 196.167 16.4778 196.977 16.7623C197.798 17.036 198.466 17.4191 198.98 17.9116C199.505 18.3932 199.888 18.9623 200.129 19.6191C200.37 20.2648 200.49 20.9599 200.49 21.7041V27.0564C200.49 27.9868 200.501 28.8022 200.523 29.5027C200.556 30.1922 200.589 30.7888 200.622 31.2922C200.666 31.7957 200.715 32.2171 200.77 32.5564C200.835 32.8957 200.901 33.1803 200.967 33.4102V33.4758H197.338V33.4102C197.393 33.235 197.431 33.038 197.453 32.8191C197.486 32.6002 197.513 32.3375 197.535 32.031C197.305 32.2281 197.032 32.4306 196.714 32.6385C196.408 32.8465 196.052 33.038 195.647 33.2131C195.253 33.3773 194.81 33.5087 194.317 33.6072C193.836 33.7166 193.305 33.7714 192.725 33.7714C190.82 33.7714 189.348 33.3281 188.308 32.4415C187.269 31.544 186.749 30.2743 186.749 28.6325ZM197.634 23.8549C196.638 23.8658 195.68 23.926 194.761 24.0355C193.841 24.134 193.026 24.3474 192.314 24.6758C191.614 25.0042 191.05 25.4748 190.623 26.0877C190.207 26.6897 189.999 27.4942 189.999 28.5012C189.999 29.7927 190.322 30.7778 190.968 31.4564C191.614 32.135 192.506 32.4743 193.644 32.4743C194.17 32.4743 194.646 32.4032 195.073 32.2609C195.51 32.1077 195.893 31.9216 196.222 31.7027C196.561 31.4728 196.846 31.2266 197.076 30.9639C197.305 30.6902 197.48 30.4276 197.601 30.1758C197.623 29.7599 197.634 29.3002 197.634 28.7967C197.634 28.2823 197.634 27.7022 197.634 27.0564V23.8549ZM205.564 15.3504C205.564 14.42 205.547 13.6101 205.514 12.9205C205.492 12.22 205.46 11.618 205.416 11.1146C205.383 10.6111 205.334 10.1897 205.268 9.85037C205.213 9.51107 205.153 9.22649 205.087 8.99664V8.93096H208.88V8.99664C208.814 9.22649 208.754 9.51107 208.699 9.85037C208.645 10.1897 208.595 10.6111 208.552 11.1146C208.508 11.618 208.475 12.22 208.453 12.9205C208.431 13.6101 208.42 14.42 208.42 15.3504V27.0564C208.42 27.9868 208.431 28.8022 208.453 29.5027C208.475 30.1922 208.508 30.7888 208.552 31.2922C208.595 31.7957 208.645 32.2171 208.699 32.5564C208.754 32.8957 208.814 33.1803 208.88 33.4102V33.4758H205.087V33.4102C205.153 33.1803 205.213 32.8957 205.268 32.5564C205.334 32.2171 205.383 31.7957 205.416 31.2922C205.46 30.7888 205.492 30.1922 205.514 29.5027C205.547 28.8022 205.564 27.9868 205.564 27.0564V15.3504Z" fill="#111827"/>
<path d="M90.4736 39.7549L211.184 39.7549" stroke="#111827" stroke-width="0.33624" stroke-linecap="round"/>
<path d="M103.526 53.2369C102.855 53.2369 102.263 53.0873 101.751 52.7881C101.245 52.4822 100.85 52.06 100.564 51.5214C100.285 50.9762 100.145 50.3445 100.145 49.6264C100.145 48.915 100.285 48.29 100.564 47.7514C100.85 47.2062 101.245 46.7806 101.751 46.4748C102.263 46.1689 102.855 46.016 103.526 46.016C104.211 46.016 104.806 46.1689 105.311 46.4748C105.823 46.7806 106.219 47.2062 106.498 47.7514C106.777 48.29 106.917 48.915 106.917 49.6264C106.917 50.3445 106.777 50.9762 106.498 51.5214C106.219 52.06 105.823 52.4822 105.311 52.7881C104.806 53.0873 104.211 53.2369 103.526 53.2369ZM103.526 52.4988C104.031 52.4988 104.474 52.3858 104.853 52.1597C105.238 51.927 105.534 51.5979 105.74 51.1723C105.953 50.7401 106.059 50.2248 106.059 49.6264C106.059 49.028 105.953 48.516 105.74 48.0905C105.534 47.6583 105.238 47.3292 104.853 47.1031C104.474 46.877 104.031 46.764 103.526 46.764C103.027 46.764 102.585 46.877 102.2 47.1031C101.821 47.3292 101.525 47.6583 101.312 48.0905C101.106 48.516 101.003 49.028 101.003 49.6264C101.003 50.2248 101.106 50.7401 101.312 51.1723C101.525 51.5979 101.821 51.927 102.2 52.1597C102.585 52.3858 103.027 52.4988 103.526 52.4988ZM118.839 53.2369C118.361 53.2369 117.925 53.1405 117.533 52.9476C117.147 52.7548 116.838 52.4623 116.605 52.07C116.373 51.671 116.256 51.1624 116.256 50.544V46.1357H117.094V50.554C117.094 51.0061 117.167 51.3751 117.314 51.661C117.466 51.947 117.676 52.1564 117.942 52.2894C118.208 52.4224 118.514 52.4889 118.859 52.4889C119.212 52.4889 119.518 52.4224 119.777 52.2894C120.036 52.1564 120.239 51.947 120.385 51.661C120.532 51.3751 120.605 51.0061 120.605 50.554V46.1357H121.443V50.544C121.443 51.1624 121.326 51.671 121.094 52.07C120.861 52.4623 120.548 52.7548 120.156 52.9476C119.764 53.1405 119.325 53.2369 118.839 53.2369ZM132.685 53.1172V46.8238H130.601V46.1357H135.608V46.8238H133.523V53.1172H132.685ZM144.819 53.1172V46.1357H146.873C147.691 46.1357 148.366 46.2786 148.898 46.5645C149.43 46.8438 149.822 47.2461 150.075 47.7713C150.334 48.29 150.464 48.915 150.464 49.6464C150.464 50.3645 150.334 50.9828 150.075 51.5015C149.822 52.0201 149.43 52.419 148.898 52.6983C148.366 52.9776 147.691 53.1172 146.873 53.1172H144.819ZM145.656 52.419H146.853C147.532 52.419 148.07 52.3093 148.469 52.0899C148.875 51.8638 149.164 51.5447 149.337 51.1324C149.51 50.7135 149.596 50.2182 149.596 49.6464C149.596 49.0613 149.51 48.5592 149.337 48.1404C149.164 47.7215 148.875 47.399 148.469 47.1729C148.07 46.9468 147.532 46.8338 146.853 46.8338H145.656V52.419ZM162.975 53.2369C162.304 53.2369 161.712 53.0873 161.2 52.7881C160.695 52.4822 160.299 52.06 160.013 51.5214C159.734 50.9762 159.594 50.3445 159.594 49.6264C159.594 48.915 159.734 48.29 160.013 47.7514C160.299 47.2062 160.695 46.7806 161.2 46.4748C161.712 46.1689 162.304 46.016 162.975 46.016C163.66 46.016 164.255 46.1689 164.761 46.4748C165.273 46.7806 165.668 47.2062 165.948 47.7514C166.227 48.29 166.366 48.915 166.366 49.6264C166.366 50.3445 166.227 50.9762 165.948 51.5214C165.668 52.06 165.273 52.4822 164.761 52.7881C164.255 53.0873 163.66 53.2369 162.975 53.2369ZM162.975 52.4988C163.481 52.4988 163.923 52.3858 164.302 52.1597C164.688 51.927 164.983 51.5979 165.19 51.1723C165.402 50.7401 165.509 50.2248 165.509 49.6264C165.509 49.028 165.402 48.516 165.19 48.0905C164.983 47.6583 164.688 47.3292 164.302 47.1031C163.923 46.877 163.481 46.764 162.975 46.764C162.477 46.764 162.035 46.877 161.649 47.1031C161.27 47.3292 160.974 47.6583 160.761 48.0905C160.555 48.516 160.452 49.028 160.452 49.6264C160.452 50.2248 160.555 50.7401 160.761 51.1723C160.974 51.5979 161.27 51.927 161.649 52.1597C162.035 52.3858 162.477 52.4988 162.975 52.4988ZM186.603 53.1172V46.1357H187.441V53.1172H186.603ZM198.755 53.1172V46.8238H196.67V46.1357H201.677V46.8238H199.592V53.1172H198.755Z" fill="#111827"/>
<line y1="1.26652" x2="32.5687" y2="1.26652" stroke="#8000FF" stroke-width="2.53312"/>
<line y1="9.2277" x2="32.5687" y2="9.2277" stroke="#8000FF" stroke-width="2.53312"/>
<line y1="17.189" x2="32.5687" y2="17.189" stroke="#8000FF" stroke-width="2.53312"/>
<line y1="25.1502" x2="32.5687" y2="25.1502" stroke="#8000FF" stroke-width="2.53312"/>
<path fill-rule="evenodd" clip-rule="evenodd" d="M52.7475 48.4692C52.7336 48.8816 52.7425 49.2645 52.7418 49.5708L55.2931 49.5766C55.2953 48.7351 55.2722 48.1121 55.4135 47.5732C55.5281 47.138 55.7188 46.8772 56.1606 46.7025C56.5681 46.5411 58.1179 46.8223 58.1179 48.9661C58.1179 49.9791 57.7043 50.8053 57.0109 51.3524C56.3147 51.9022 55.2202 52.2596 53.7042 52.0989C51.0319 51.8157 49.2145 49.1977 49.6341 46.1731C49.8726 44.4536 51.6502 41.2143 55.7488 40.9759C59.8481 40.7374 64.3154 44.0018 63.474 50.2172C63.0629 53.2527 61.3964 55.0194 59.5042 56.0572C57.5565 57.1252 55.354 57.4216 54.052 57.3881C52.8009 57.3558 50.2866 56.8196 48.0833 55.3036C45.9381 53.8272 44.0794 51.4243 43.9616 47.5406C43.8345 43.3391 45.6142 40.5048 47.9744 38.6526C50.3813 36.7638 53.4309 35.8736 55.7552 35.727C62.1898 35.3217 69.3878 39.5789 69.3885 48.4692C69.3892 53.405 66.863 58.6387 61.7892 61.4065C56.9161 64.0649 49.821 64.701 40.0776 58.862L40.0776 61.7045C49.743 67.0754 57.3902 66.6075 63.0567 63.5164C69.0318 60.2568 71.9406 54.1525 71.9399 48.4692C71.9388 37.8742 63.1608 32.8242 55.5868 33.3014C52.8159 33.476 49.2337 34.5149 46.3524 36.7761C43.4245 39.0739 41.2601 42.6096 41.4113 47.6108C41.5548 52.3349 43.8769 55.4077 46.5898 57.2744C49.2444 59.1012 52.2652 59.774 53.9833 59.8185C55.6501 59.8612 58.3399 59.5007 60.777 58.1641C63.2693 56.7969 65.4789 54.4103 66.0047 50.5282C67.0486 42.8161 61.3088 38.2168 55.5932 38.5492C50.1148 38.6526 47.4444 43.4059 47.1049 45.8543C46.5574 49.7987 48.9137 54.0372 53.4223 54.5151C55.4967 54.7348 57.3173 54.2678 58.6386 53.2246C59.963 52.1789 60.6692 50.6442 60.6692 48.9661C60.6692 45.7268 57.8661 43.8349 55.2932 44.5368C53.8365 44.9342 53.2038 45.9737 52.9386 46.983C52.8105 47.4697 52.7639 47.9896 52.7475 48.4692Z" fill="#8000FF"/>
<path d="M26.4169 32.0259C26.4169 35.4235 29.1712 38.1777 32.5688 38.1777V40.7109C27.7722 40.7109 23.8838 36.8225 23.8838 32.0259H26.4169Z" fill="#8000FF"/>
<path d="M18.456 32.0259C18.456 39.8203 24.7746 46.139 32.5691 46.139V48.6721C23.3756 48.6721 15.9229 41.2193 15.9229 32.0259H18.456Z" fill="#8000FF"/>
<path d="M10.4941 32.0259C10.4941 44.2172 20.3771 54.1002 32.5684 54.1002V56.6333C18.9781 56.6333 7.96094 45.6162 7.96094 32.0259H10.4941Z" fill="#8000FF"/>
<path d="M2.53312 32.0259C2.53312 48.6141 15.9805 62.0614 32.5687 62.0614V64.5946C14.5815 64.5946 0 50.0131 0 32.0259H2.53312Z" fill="#8000FF"/>
<path fill-rule="evenodd" clip-rule="evenodd" d="M68.6152 0C68.2317 0.962164 67.8138 2.25489 67.6852 3.85044C67.4743 6.46508 68.0201 9.82126 70.3373 14.1425C71.5504 16.4045 71.4722 18.8394 70.8105 21.1128C70.1881 23.2514 69.0731 25.1504 68.1896 26.4168H71.1882C71.9402 25.1486 72.7119 23.5755 73.2181 21.8359C73.9989 19.1543 74.1758 15.9682 72.5424 12.9223C70.4154 8.95624 70.0234 6.09288 70.1877 4.0586C70.255 3.22667 70.4123 2.52034 70.6056 1.90049C70.806 1.25821 71.0452 0.708457 71.2635 0.207449L71.3535 0H68.6152Z" fill="#8000FF"/>
<path fill-rule="evenodd" clip-rule="evenodd" d="M42.5606 0C42.177 0.962164 41.7591 2.25489 41.6305 3.85044C41.4196 6.46508 41.9654 9.82126 44.2826 14.1425C45.4957 16.4045 45.4176 18.8394 44.7558 21.1128C44.1334 23.2514 43.0184 25.1504 42.1349 26.4168H45.1335C45.8855 25.1486 46.6572 23.5755 47.1634 21.8359C47.9442 19.1543 48.1211 15.9682 46.4877 12.9223C44.3607 8.95624 43.9687 6.09288 44.133 4.0586C44.2003 3.22667 44.3576 2.52034 44.5509 1.90049C44.7513 1.25821 44.9905 0.708457 45.2088 0.207449L45.2988 0H42.5606Z" fill="#8000FF"/>
<path fill-rule="evenodd" clip-rule="evenodd" d="M51.2451 0C50.8616 0.962164 50.4437 2.25489 50.3151 3.85044C50.1042 6.46508 50.65 9.82126 52.9672 14.1425C54.1802 16.4045 54.1021 18.8394 53.4404 21.1128C52.8179 23.2514 51.703 25.1504 50.8195 26.4168H53.818C54.5701 25.1486 55.3418 23.5755 55.848 21.8359C56.6288 19.1543 56.8057 15.9682 55.1723 12.9223C53.0453 8.95624 52.6533 6.09288 52.8176 4.0586C52.8849 3.22667 53.0421 2.52034 53.2355 1.90049C53.4359 1.25821 53.6751 0.708457 53.8933 0.207449L53.9834 0H51.2451Z" fill="#8000FF"/>
<path fill-rule="evenodd" clip-rule="evenodd" d="M59.9307 0C59.5471 0.962164 59.1292 2.25489 59.0006 3.85044C58.7898 6.46508 59.3355 9.82126 61.6527 14.1425C62.8658 16.4045 62.7877 18.8394 62.126 21.1128C61.5035 23.2514 60.3885 25.1504 59.5051 26.4168H62.5036C63.2557 25.1486 64.0274 23.5755 64.5335 21.8359C65.3143 19.1543 65.4912 15.9682 63.8578 12.9223C61.7308 8.95624 61.3389 6.09288 61.5031 4.0586C61.5704 3.22667 61.7277 2.52034 61.921 1.90049C62.1214 1.25821 62.3607 0.708457 62.5789 0.207449L62.6689 0H59.9307Z" fill="#8000FF"/>
</svg>
