<svg width="12" height="12" viewBox="0 0 12 12" fill="none" xmlns="http://www.w3.org/2000/svg">
<g clip-path="url(#clip0_1933_1720)">
<path d="M6 0.5C6.13261 0.5 6.25979 0.552678 6.35355 0.646447C6.44732 0.740215 6.5 0.867392 6.5 1V2C6.5 2.13261 6.44732 2.25979 6.35355 2.35355C6.25979 2.44732 6.13261 2.5 6 2.5C5.86739 2.5 5.74021 2.44732 5.64645 2.35355C5.55268 2.25979 5.5 2.13261 5.5 2V1C5.5 0.867392 5.55268 0.740215 5.64645 0.646447C5.74021 0.552678 5.86739 0.5 6 0.5ZM6 9.5C6.13261 9.5 6.25979 9.55268 6.35355 9.64645C6.44732 9.74021 6.5 9.86739 6.5 10V11C6.5 11.1326 6.44732 11.2598 6.35355 11.3536C6.25979 11.4473 6.13261 11.5 6 11.5C5.86739 11.5 5.74021 11.4473 5.64645 11.3536C5.55268 11.2598 5.5 11.1326 5.5 11V10C5.5 9.86739 5.55268 9.74021 5.64645 9.64645C5.74021 9.55268 5.86739 9.5 6 9.5ZM0.5 6C0.5 5.86739 0.552678 5.74021 0.646447 5.64645C0.740215 5.55268 0.867392 5.5 1 5.5H2C2.13261 5.5 2.25979 5.55268 2.35355 5.64645C2.44732 5.74021 2.5 5.86739 2.5 6C2.5 6.13261 2.44732 6.25979 2.35355 6.35355C2.25979 6.44732 2.13261 6.5 2 6.5H1C0.867392 6.5 0.740215 6.44732 0.646447 6.35355C0.552678 6.25979 0.5 6.13261 0.5 6ZM9.5 6C9.5 5.86739 9.55268 5.74021 9.64645 5.64645C9.74021 5.55268 9.86739 5.5 10 5.5H11C11.1326 5.5 11.2598 5.55268 11.3536 5.64645C11.4473 5.74021 11.5 5.86739 11.5 6C11.5 6.13261 11.4473 6.25979 11.3536 6.35355C11.2598 6.44732 11.1326 6.5 11 6.5H10C9.86739 6.5 9.74021 6.44732 9.64645 6.35355C9.55268 6.25979 9.5 6.13261 9.5 6ZM3.5235 8.4765C3.61724 8.57026 3.66989 8.69742 3.66989 8.83C3.66989 8.96258 3.61724 9.08974 3.5235 9.1835L2.8185 9.8885C2.77238 9.93626 2.7172 9.97435 2.6562 10.0006C2.5952 10.0268 2.52959 10.0405 2.4632 10.0411C2.39681 10.0417 2.33097 10.0291 2.26952 10.0039C2.20807 9.97877 2.15225 9.94164 2.1053 9.8947C2.05836 9.84775 2.02123 9.79193 1.99609 9.73048C1.97095 9.66903 1.9583 9.60319 1.95887 9.5368C1.95945 9.47041 1.97324 9.4048 1.99945 9.3438C2.02565 9.2828 2.06375 9.22762 2.1115 9.1815L2.8165 8.4765C2.91026 8.38276 3.03742 8.33011 3.17 8.33011C3.30258 8.33011 3.42974 8.38276 3.5235 8.4765ZM9.8885 2.1115C9.98224 2.20526 10.0349 2.33242 10.0349 2.465C10.0349 2.59758 9.98224 2.72474 9.8885 2.8185L9.1835 3.5235C9.13738 3.57126 9.0822 3.60935 9.0212 3.63555C8.9602 3.66176 8.89459 3.67555 8.8282 3.67613C8.76181 3.6767 8.69597 3.66405 8.63452 3.63891C8.57308 3.61377 8.51725 3.57664 8.4703 3.5297C8.42336 3.48275 8.38623 3.42693 8.36109 3.36548C8.33595 3.30403 8.3233 3.23819 8.32387 3.1718C8.32445 3.10541 8.33825 3.0398 8.36445 2.9788C8.39065 2.9178 8.42874 2.86262 8.4765 2.8165L9.1815 2.1115C9.27526 2.01776 9.40242 1.96511 9.535 1.96511C9.66758 1.96511 9.79474 2.01776 9.8885 2.1115ZM8.4765 8.4765C8.57026 8.38276 8.69742 8.33011 8.83 8.33011C8.96258 8.33011 9.08974 8.38276 9.1835 8.4765L9.8885 9.1815C9.93626 9.22762 9.97435 9.2828 10.0006 9.3438C10.0268 9.4048 10.0405 9.47041 10.0411 9.5368C10.0417 9.60319 10.0291 9.66903 10.0039 9.73048C9.97877 9.79193 9.94164 9.84775 9.8947 9.8947C9.84775 9.94164 9.79193 9.97877 9.73048 10.0039C9.66903 10.0291 9.60319 10.0417 9.5368 10.0411C9.47041 10.0405 9.4048 10.0268 9.3438 10.0006C9.2828 9.97435 9.22762 9.93626 9.1815 9.8885L8.4765 9.1835C8.38276 9.08974 8.33011 8.96258 8.33011 8.83C8.33011 8.69742 8.38276 8.57026 8.4765 8.4765ZM2.1115 2.1115C2.20526 2.01776 2.33242 1.96511 2.465 1.96511C2.59758 1.96511 2.72474 2.01776 2.8185 2.1115L3.5235 2.8165C3.61458 2.9108 3.66498 3.0371 3.66384 3.1682C3.6627 3.2993 3.61011 3.42471 3.51741 3.51741C3.42471 3.61011 3.2993 3.6627 3.1682 3.66384C3.0371 3.66498 2.9108 3.61458 2.8165 3.5235L2.1115 2.8185C2.01776 2.72474 1.96511 2.59758 1.96511 2.465C1.96511 2.33242 2.01776 2.20526 2.1115 2.1115ZM6 3.5C5.33696 3.5 4.70107 3.76339 4.23223 4.23223C3.76339 4.70107 3.5 5.33696 3.5 6C3.5 6.66304 3.76339 7.29893 4.23223 7.76777C4.70107 8.23661 5.33696 8.5 6 8.5C6.66304 8.5 7.29893 8.23661 7.76777 7.76777C8.23661 7.29893 8.5 6.66304 8.5 6C8.5 5.33696 8.23661 4.70107 7.76777 4.23223C7.29893 3.76339 6.66304 3.5 6 3.5Z" fill="#8000FF"/>
</g>
<defs>
<clipPath id="clip0_1933_1720">
<rect width="12" height="12" fill="white"/>
</clipPath>
</defs>
</svg>
