<svg xmlns="http://www.w3.org/2000/svg" width="198" height="62" viewBox="0 0 198 62" fill="none"><path d="M88.2977 8.95503V9.01652C88.2772 9.06777 88.2619 9.14463 88.2516 9.24712C88.2414 9.34961 88.2363 9.44185 88.2363 9.52384C88.2363 9.84155 88.2772 10.1951 88.3592 10.5846C88.4515 10.9638 88.6206 11.4403 88.8665 12.0143L95.6768 27.372L102.256 12.1373C102.41 11.7581 102.574 11.343 102.748 10.892C102.923 10.4411 103.01 9.98503 103.01 9.52384C103.01 9.40085 103 9.29836 102.979 9.21637C102.959 9.12414 102.938 9.05752 102.918 9.01652V8.95503H106.069V9.01652C105.874 9.21125 105.639 9.55971 105.362 10.0619C105.085 10.5641 104.783 11.1841 104.455 11.922L95.6461 31.4766H94.4162L86.0686 12.6753C85.8739 12.2346 85.669 11.8093 85.4537 11.3993C85.2488 10.9894 85.054 10.6204 84.8696 10.2925C84.6851 9.95428 84.5211 9.67244 84.3776 9.44697C84.2341 9.2215 84.1368 9.07802 84.0855 9.01652V8.95503H88.2977ZM127.038 28.4173C127.038 28.5301 127.022 28.6479 126.992 28.7709C126.971 28.8939 126.915 28.9964 126.823 29.0784C126.361 29.4268 125.859 29.7497 125.316 30.0469C124.783 30.3338 124.204 30.5849 123.579 30.8002C122.954 31.0154 122.277 31.1794 121.55 31.2921C120.832 31.4151 120.058 31.4766 119.228 31.4766C117.363 31.4766 115.662 31.205 114.124 30.6618C112.587 30.1084 111.265 29.3295 110.158 28.3251C109.062 27.3207 108.211 26.1165 107.606 24.7124C107.002 23.2981 106.699 21.73 106.699 20.0083C106.699 19.0346 106.822 18.0764 107.068 17.1335C107.324 16.1906 107.693 15.2939 108.175 14.4432C108.657 13.5926 109.251 12.8137 109.958 12.1065C110.666 11.3891 111.47 10.7691 112.372 10.2464C113.284 9.72369 114.283 9.31886 115.37 9.0319C116.466 8.73469 117.65 8.58608 118.921 8.58608C119.413 8.58608 119.915 8.6117 120.427 8.66294C120.94 8.70394 121.447 8.77056 121.949 8.86279C122.452 8.94478 122.933 9.04727 123.394 9.17026C123.866 9.29324 124.312 9.4316 124.732 9.58533L125.777 12.4293L125.654 12.4908C125.255 12.1321 124.793 11.799 124.271 11.4916C123.748 11.1841 123.189 10.9177 122.595 10.6922C122.001 10.4667 121.375 10.2925 120.72 10.1695C120.074 10.0363 119.418 9.96965 118.752 9.96965C117.46 9.96965 116.277 10.1746 115.201 10.5846C114.124 10.9843 113.197 11.5685 112.418 12.3371C111.649 13.1058 111.05 14.0486 110.619 15.1657C110.189 16.2829 109.974 17.5537 109.974 18.9783C109.974 20.5463 110.179 22.0016 110.589 23.3442C110.999 24.6868 111.608 25.85 112.418 26.8339C113.228 27.8178 114.237 28.5916 115.447 29.1552C116.666 29.7087 118.086 29.9854 119.705 29.9854C120.422 29.9854 121.063 29.929 121.627 29.8163C122.19 29.7035 122.667 29.5652 123.056 29.4012C123.446 29.227 123.738 29.0425 123.932 28.8478C124.137 28.6428 124.24 28.4583 124.24 28.2943V27.6948C124.24 26.9774 124.23 26.3573 124.209 25.8347C124.189 25.312 124.158 24.861 124.117 24.4818C124.076 24.0924 124.03 23.7593 123.979 23.4826C123.927 23.2059 123.866 22.9496 123.794 22.7139V22.6524H127.484V22.7139C127.422 22.9291 127.361 23.1854 127.299 23.4826C127.248 23.7695 127.202 24.1129 127.161 24.5126C127.12 24.9123 127.089 25.3837 127.069 25.9269C127.048 26.4598 127.038 27.0799 127.038 27.787V28.4173ZM131.265 14.0281C131.265 13.157 131.25 12.3986 131.219 11.7529C131.199 11.097 131.168 10.5333 131.127 10.0619C131.096 9.59045 131.05 9.19588 130.989 8.87817C130.937 8.56046 130.881 8.29399 130.82 8.07877V8.01728H134.371V8.07877C134.309 8.29399 134.253 8.56046 134.202 8.87817C134.15 9.19588 134.104 9.59045 134.063 10.0619C134.022 10.5333 133.992 11.097 133.971 11.7529C133.951 12.3986 133.94 13.157 133.94 14.0281V24.9891C133.94 25.8603 133.951 26.6238 133.971 27.2797C133.992 27.9254 134.022 28.4839 134.063 28.9554C134.104 29.4268 134.15 29.8214 134.202 30.1391C134.253 30.4568 134.309 30.7233 134.371 30.9385V31H130.82V30.9385C130.881 30.7233 130.937 30.4568 130.989 30.1391C131.05 29.8214 131.096 29.4268 131.127 28.9554C131.168 28.4839 131.199 27.9254 131.219 27.2797C131.25 26.6238 131.265 25.8603 131.265 24.9891V14.0281ZM137.476 23.0982C137.476 21.9401 137.691 20.8692 138.122 19.8853C138.552 18.8912 139.142 18.0303 139.89 17.3026C140.648 16.5749 141.54 16.0061 142.565 15.5962C143.59 15.1862 144.691 14.9813 145.87 14.9813C147.028 14.9813 148.114 15.176 149.129 15.5654C150.154 15.9447 151.045 16.4878 151.804 17.195C152.562 17.9022 153.157 18.763 153.587 19.7777C154.028 20.7923 154.248 21.9299 154.248 23.1905C154.248 24.2461 154.064 25.2607 153.695 26.2344C153.326 27.208 152.783 28.0689 152.065 28.817C151.348 29.5652 150.466 30.1647 149.421 30.6157C148.386 31.0564 147.192 31.2767 145.839 31.2767C144.691 31.2767 143.61 31.0871 142.595 30.7079C141.581 30.3287 140.694 29.7855 139.936 29.0784C139.177 28.3712 138.578 27.5154 138.137 26.5111C137.697 25.4964 137.476 24.3588 137.476 23.0982ZM146.193 30.1545C146.92 30.1545 147.587 30.011 148.191 29.724C148.806 29.4371 149.334 29.022 149.775 28.4788C150.215 27.9356 150.559 27.2746 150.805 26.4957C151.051 25.7168 151.174 24.8354 151.174 23.8515C151.174 22.7447 151.056 21.7198 150.82 20.7769C150.584 19.8238 150.231 19.0039 149.759 18.3172C149.298 17.6203 148.714 17.0771 148.007 16.6877C147.3 16.2982 146.475 16.1035 145.532 16.1035C144.804 16.1035 144.138 16.247 143.533 16.534C142.928 16.8107 142.401 17.2155 141.95 17.7484C141.509 18.2814 141.166 18.9373 140.92 19.7162C140.674 20.4848 140.551 21.3611 140.551 22.345C140.551 23.4518 140.669 24.4818 140.904 25.435C141.15 26.3881 141.509 27.2182 141.98 27.9254C142.452 28.6223 143.036 29.1706 143.733 29.5703C144.44 29.9598 145.26 30.1545 146.193 30.1545ZM160.382 16.042C161.028 15.6936 161.719 15.4322 162.457 15.258C163.195 15.0735 163.949 14.9813 164.717 14.9813C165.855 14.9813 166.905 15.176 167.869 15.5654C168.842 15.9447 169.683 16.4878 170.39 17.195C171.097 17.9022 171.65 18.763 172.05 19.7777C172.45 20.7923 172.65 21.9299 172.65 23.1905C172.65 24.2461 172.465 25.2607 172.096 26.2344C171.738 27.208 171.194 28.0689 170.467 28.817C169.749 29.5652 168.853 30.1647 167.776 30.6157C166.711 31.0564 165.47 31.2767 164.056 31.2767C163.892 31.2767 163.672 31.2716 163.395 31.2613C163.129 31.2511 162.831 31.2306 162.503 31.1998C162.176 31.1691 161.827 31.1281 161.458 31.0769C161.089 31.0256 160.73 30.959 160.382 30.877C159.89 30.7643 159.393 30.6413 158.891 30.5081C158.399 30.3646 157.927 30.2057 157.477 30.0315C157.518 29.8778 157.553 29.6215 157.584 29.2628C157.615 28.8939 157.635 28.4993 157.646 28.0791C157.666 27.6589 157.681 27.249 157.692 26.8493C157.702 26.4393 157.707 26.1114 157.707 25.8654V14.0281C157.707 13.157 157.692 12.3986 157.661 11.7529C157.64 11.097 157.61 10.5333 157.569 10.0619C157.538 9.59045 157.492 9.19588 157.43 8.87817C157.379 8.56046 157.323 8.29399 157.261 8.07877V8.01728H160.812V8.07877C160.751 8.29399 160.695 8.56046 160.643 8.87817C160.592 9.19588 160.546 9.59045 160.505 10.0619C160.464 10.5333 160.433 11.097 160.413 11.7529C160.392 12.3986 160.382 13.157 160.382 14.0281V16.042ZM160.382 25.6194C160.382 26.4496 160.387 27.1362 160.397 27.6794C160.418 28.2226 160.444 28.6582 160.474 28.9861C160.905 29.3141 161.489 29.5908 162.227 29.8163C162.965 30.0417 163.774 30.1545 164.656 30.1545C165.383 30.1545 166.05 30.011 166.654 29.724C167.259 29.4371 167.776 29.022 168.207 28.4788C168.637 27.9356 168.97 27.2746 169.206 26.4957C169.452 25.7168 169.575 24.8354 169.575 23.8515C169.575 22.7447 169.473 21.7198 169.268 20.7769C169.063 19.8238 168.745 19.0039 168.315 18.3172C167.884 17.6203 167.336 17.0771 166.67 16.6877C166.003 16.2982 165.209 16.1035 164.287 16.1035C163.508 16.1035 162.78 16.2624 162.104 16.5801C161.427 16.8978 160.853 17.359 160.382 17.9636V25.6194ZM174.863 26.4649C174.863 25.6553 175.027 24.9533 175.355 24.3588C175.694 23.7644 176.139 23.2571 176.693 22.8369C177.246 22.4167 177.877 22.0785 178.584 21.8223C179.291 21.5558 180.024 21.3508 180.782 21.2074C181.54 21.0536 182.289 20.9511 183.027 20.8999C183.764 20.8384 184.441 20.8025 185.056 20.7923V20.0083C185.056 19.3318 184.969 18.7477 184.794 18.2557C184.62 17.7638 184.374 17.359 184.057 17.0413C183.739 16.7133 183.354 16.4725 182.904 16.3187C182.463 16.1547 181.976 16.0728 181.443 16.0728C181.074 16.0728 180.71 16.1035 180.352 16.165C179.993 16.2265 179.619 16.329 179.229 16.4725C178.85 16.6159 178.445 16.8107 178.015 17.0566C177.595 17.3026 177.139 17.6152 176.647 17.9944L176.493 17.9022L177.538 15.7346C177.877 15.5808 178.21 15.4578 178.538 15.3656C178.866 15.2631 179.199 15.1811 179.537 15.1196C179.875 15.0581 180.218 15.0171 180.567 14.9966C180.926 14.9659 181.3 14.9505 181.689 14.9505C182.765 14.9505 183.682 15.0838 184.441 15.3502C185.21 15.6064 185.835 15.9651 186.316 16.4263C186.808 16.8773 187.167 17.4102 187.392 18.0251C187.618 18.6298 187.731 19.2806 187.731 19.9775V24.9891C187.731 25.8603 187.741 26.6238 187.761 27.2797C187.792 27.9254 187.823 28.4839 187.854 28.9554C187.895 29.4268 187.941 29.8214 187.992 30.1391C188.054 30.4568 188.115 30.7233 188.177 30.9385V31H184.779V30.9385C184.83 30.7745 184.866 30.5901 184.887 30.3851C184.917 30.1801 184.943 29.9341 184.964 29.6472C184.748 29.8316 184.492 30.0212 184.195 30.216C183.908 30.4107 183.575 30.5901 183.196 30.754C182.827 30.9078 182.412 31.0307 181.95 31.123C181.499 31.2255 181.002 31.2767 180.459 31.2767C178.676 31.2767 177.298 30.8616 176.324 30.0315C175.35 29.1911 174.863 28.0023 174.863 26.4649ZM185.056 21.9914C184.123 22.0016 183.226 22.058 182.365 22.1605C181.505 22.2527 180.741 22.4526 180.075 22.76C179.419 23.0675 178.891 23.5082 178.491 24.0821C178.102 24.6458 177.907 25.3991 177.907 26.342C177.907 27.5513 178.21 28.4737 178.814 29.1091C179.419 29.7445 180.254 30.0622 181.32 30.0622C181.812 30.0622 182.258 29.9956 182.658 29.8624C183.068 29.7189 183.426 29.5447 183.734 29.3397C184.051 29.1245 184.318 28.8939 184.533 28.6479C184.748 28.3917 184.912 28.1457 185.025 27.91C185.046 27.5206 185.056 27.0901 185.056 26.6187C185.056 26.137 185.056 25.5938 185.056 24.9891V21.9914ZM192.481 14.0281C192.481 13.157 192.466 12.3986 192.435 11.7529C192.414 11.097 192.384 10.5333 192.343 10.0619C192.312 9.59045 192.266 9.19588 192.204 8.87817C192.153 8.56046 192.097 8.29399 192.035 8.07877V8.01728H195.586V8.07877C195.525 8.29399 195.468 8.56046 195.417 8.87817C195.366 9.19588 195.32 9.59045 195.279 10.0619C195.238 10.5333 195.207 11.097 195.187 11.7529C195.166 12.3986 195.156 13.157 195.156 14.0281V24.9891C195.156 25.8603 195.166 26.6238 195.187 27.2797C195.207 27.9254 195.238 28.4839 195.279 28.9554C195.32 29.4268 195.366 29.8214 195.417 30.1391C195.468 30.4568 195.525 30.7233 195.586 30.9385V31H192.035V30.9385C192.097 30.7233 192.153 30.4568 192.204 30.1391C192.266 29.8214 192.312 29.4268 192.343 28.9554C192.384 28.4839 192.414 27.9254 192.435 27.2797C192.466 26.6238 192.481 25.8603 192.481 24.9891V14.0281Z" fill="#111827"></path><path d="M84.7158 37.2247L197.743 37.2247" stroke="#111827" stroke-width="0.31484" stroke-linecap="round"></path><path d="M96.9512 49.485C96.3224 49.485 95.7683 49.3449 95.2889 49.0648C94.8158 48.7784 94.4453 48.383 94.1776 47.8787C93.9161 47.3682 93.7854 46.7767 93.7854 46.1043C93.7854 45.4382 93.9161 44.8529 94.1776 44.3486C94.4453 43.8381 94.8158 43.4397 95.2889 43.1533C95.7683 42.8669 96.3224 42.7237 96.9512 42.7237C97.5925 42.7237 98.1497 42.8669 98.6229 43.1533C99.0961 43.4397 99.4634 43.8381 99.7249 44.3486C99.9926 44.8529 100.126 45.4382 100.126 46.1043C100.126 46.7767 99.9926 47.3682 99.7249 47.8787C99.4634 48.383 99.0961 48.7784 98.6229 49.0648C98.1497 49.3449 97.5925 49.485 96.9512 49.485ZM96.9512 48.7939C97.4244 48.7939 97.8384 48.6881 98.1933 48.4764C98.5544 48.2585 98.8315 47.9503 99.0245 47.5519C99.2237 47.1472 99.3233 46.6647 99.3233 46.1043C99.3233 45.544 99.2237 45.0646 99.0245 44.6662C98.8315 44.2615 98.5544 43.9533 98.1933 43.7416C97.8384 43.5299 97.4244 43.4241 96.9512 43.4241C96.4843 43.4241 96.0703 43.5299 95.7092 43.7416C95.3543 43.9533 95.0772 44.2615 94.878 44.6662C94.685 45.0646 94.5885 45.544 94.5885 46.1043C94.5885 46.6647 94.685 47.1472 94.878 47.5519C95.0772 47.9503 95.3543 48.2585 95.7092 48.4764C96.0703 48.6881 96.4843 48.7939 96.9512 48.7939ZM111.281 49.485C110.833 49.485 110.425 49.3947 110.057 49.2142C109.696 49.0336 109.407 48.7597 109.189 48.3924C108.971 48.0188 108.862 47.5425 108.862 46.9635V42.8357H109.647V46.9729C109.647 47.3962 109.715 47.7418 109.852 48.0095C109.995 48.2772 110.191 48.4733 110.44 48.5978C110.689 48.7223 110.976 48.7846 111.3 48.7846C111.63 48.7846 111.916 48.7223 112.159 48.5978C112.402 48.4733 112.591 48.2772 112.728 48.0095C112.865 47.7418 112.934 47.3962 112.934 46.9729V42.8357H113.718V46.9635C113.718 47.5425 113.609 48.0188 113.391 48.3924C113.174 48.7597 112.881 49.0336 112.514 49.2142C112.146 49.3947 111.735 49.485 111.281 49.485ZM124.236 49.3729V43.4801H122.285V42.8357H126.973V43.4801H125.021V49.3729H124.236ZM135.598 49.3729V42.8357H137.521C138.287 42.8357 138.916 42.9696 139.408 43.2373C139.906 43.4988 140.273 43.8755 140.51 44.3673C140.753 44.8529 140.874 45.4382 140.874 46.123C140.874 46.7954 140.753 47.3744 140.51 47.86C140.273 48.3457 139.906 48.7192 139.408 48.9807C138.916 49.2422 138.287 49.3729 137.521 49.3729H135.598ZM136.382 48.7192H137.503C138.138 48.7192 138.642 48.6165 139.016 48.411C139.389 48.1994 139.657 47.9005 139.819 47.5145C139.981 47.1223 140.062 46.6584 140.062 46.123C140.062 45.5751 139.981 45.1051 139.819 44.7129C139.657 44.3206 139.389 44.0187 139.016 43.807C138.642 43.5953 138.138 43.4895 137.503 43.4895H136.382V48.7192ZM152.599 49.485C151.97 49.485 151.416 49.3449 150.936 49.0648C150.463 48.7784 150.093 48.383 149.825 47.8787C149.564 47.3682 149.433 46.7767 149.433 46.1043C149.433 45.4382 149.564 44.8529 149.825 44.3486C150.093 43.8381 150.463 43.4397 150.936 43.1533C151.416 42.8669 151.97 42.7237 152.599 42.7237C153.24 42.7237 153.797 42.8669 154.27 43.1533C154.744 43.4397 155.111 43.8381 155.372 44.3486C155.64 44.8529 155.774 45.4382 155.774 46.1043C155.774 46.7767 155.64 47.3682 155.372 47.8787C155.111 48.383 154.744 48.7784 154.27 49.0648C153.797 49.3449 153.24 49.485 152.599 49.485ZM152.599 48.7939C153.072 48.7939 153.486 48.6881 153.841 48.4764C154.202 48.2585 154.479 47.9503 154.672 47.5519C154.871 47.1472 154.971 46.6647 154.971 46.1043C154.971 45.544 154.871 45.0646 154.672 44.6662C154.479 44.2615 154.202 43.9533 153.841 43.7416C153.486 43.5299 153.072 43.4241 152.599 43.4241C152.132 43.4241 151.718 43.5299 151.357 43.7416C151.002 43.9533 150.725 44.2615 150.525 44.6662C150.332 45.0646 150.236 45.544 150.236 46.1043C150.236 46.6647 150.332 47.1472 150.525 47.5519C150.725 47.9503 151.002 48.2585 151.357 48.4764C151.718 48.6881 152.132 48.7939 152.599 48.7939ZM174.713 49.3729V42.8357H175.498V49.3729H174.713ZM186.092 49.3729V43.4801H184.14V42.8357H188.828V43.4801H186.876V49.3729H186.092Z" fill="#111827"></path><line y1="1.18594" x2="30.4959" y2="1.18594" stroke="#8000FF" stroke-width="2.3719"></line><line y1="8.64049" x2="30.4959" y2="8.64049" stroke="#8000FF" stroke-width="2.3719"></line><line y1="16.095" x2="30.4959" y2="16.095" stroke="#8000FF" stroke-width="2.3719"></line><line y1="23.5496" x2="30.4959" y2="23.5496" stroke="#8000FF" stroke-width="2.3719"></line><path fill-rule="evenodd" clip-rule="evenodd" d="M49.3907 45.3843C49.3777 45.7705 49.386 46.129 49.3853 46.4158L51.7743 46.4212C51.7763 45.6333 51.7546 45.0499 51.8869 44.5453C51.9943 44.1378 52.1729 43.8936 52.5865 43.7301C52.9681 43.5789 54.4192 43.8422 54.4192 45.8496C54.4192 46.7981 54.0319 47.5718 53.3827 48.084C52.7308 48.5988 51.706 48.9335 50.2865 48.783C47.7842 48.5178 46.0825 46.0665 46.4754 43.2343C46.6987 41.6242 48.3632 38.5911 52.2009 38.3679C56.0393 38.1446 60.2223 41.2012 59.4344 47.0211C59.0495 49.8634 57.4891 51.5176 55.7173 52.4894C53.8936 53.4894 51.8313 53.767 50.6121 53.7355C49.4406 53.7054 47.0863 53.2033 45.0233 51.7837C43.0146 50.4013 41.2742 48.1513 41.1639 44.5148C41.0449 40.5807 42.7114 37.9267 44.9214 36.1925C47.175 34.4239 50.0306 33.5903 52.2069 33.4531C58.232 33.0736 64.9719 37.0598 64.9726 45.3843C64.9732 50.0059 62.6078 54.9065 57.8569 57.4982C53.2939 59.9874 46.6504 60.583 37.5271 55.1157L37.5271 57.7773C46.5774 62.8064 53.7378 62.3682 59.0437 59.4739C64.6385 56.4217 67.3622 50.7059 67.3616 45.3843C67.3606 35.4636 59.1412 30.735 52.0493 31.1818C49.4547 31.3454 46.1005 32.3181 43.4026 34.4354C40.661 36.5869 38.6343 39.8976 38.776 44.5805C38.9103 49.004 41.0846 51.8812 43.6249 53.6291C46.1105 55.3396 48.939 55.9696 50.5478 56.0113C52.1085 56.0513 54.6272 55.7137 56.9091 54.4621C59.2428 53.182 61.3118 50.9472 61.8041 47.3123C62.7816 40.091 57.4071 35.7844 52.0553 36.0956C46.9255 36.1925 44.4251 40.6433 44.1071 42.9358C43.5945 46.6292 45.8009 50.5979 50.0225 51.0454C51.9649 51.2512 53.6697 50.8139 54.9068 49.837C56.1469 48.8579 56.8082 47.4209 56.8082 45.8496C56.8082 42.8164 54.1835 41.0449 51.7743 41.7022C50.4104 42.0743 49.8179 43.0476 49.5696 43.9927C49.4496 44.4484 49.406 44.9353 49.3907 45.3843Z" fill="#8000FF"></path><path d="M24.7354 29.9876C24.7354 33.169 27.3144 35.748 30.4958 35.748V38.1199C26.0044 38.1199 22.3635 34.4789 22.3635 29.9876H24.7354Z" fill="#8000FF"></path><path d="M17.2811 29.9876C17.2811 37.286 23.1976 43.2025 30.496 43.2025V45.5744C21.8876 45.5744 14.9092 38.596 14.9092 29.9876H17.2811Z" fill="#8000FF"></path><path d="M9.82649 29.9876C9.82649 41.403 19.0805 50.6571 30.4959 50.6571V53.029C17.7705 53.029 7.45459 42.713 7.45459 29.9876H9.82649Z" fill="#8000FF"></path><path d="M2.3719 29.9876C2.3719 45.5201 14.9634 58.1116 30.4959 58.1116V60.4835C13.6535 60.4835 0 46.83 0 29.9876H2.3719Z" fill="#8000FF"></path><path fill-rule="evenodd" clip-rule="evenodd" d="M64.249 0C63.8898 0.900928 63.4985 2.11138 63.3781 3.60538C63.1807 6.05361 63.6917 9.1962 65.8614 13.2424C66.9973 15.3604 66.9241 17.6404 66.3045 19.7691C65.7217 21.7715 64.6777 23.5497 63.8504 24.7355H66.6581C67.3623 23.5481 68.0849 22.0751 68.5589 20.4461C69.29 17.9353 69.4556 14.9519 67.9262 12.0999C65.9345 8.38623 65.5675 5.7051 65.7213 3.80029C65.7843 3.02131 65.9316 2.35994 66.1127 1.77953C66.3003 1.17814 66.5243 0.663368 66.7286 0.194246L66.8129 0H64.249Z" fill="#8000FF"></path><path fill-rule="evenodd" clip-rule="evenodd" d="M39.8522 0C39.4931 0.900928 39.1018 2.11138 38.9814 3.60538C38.7839 6.05361 39.295 9.1962 41.4647 13.2424C42.6005 15.3604 42.5274 17.6404 41.9078 19.7691C41.3249 21.7715 40.2809 23.5497 39.4537 24.7355H42.2614C42.9656 23.5481 43.6882 22.0751 44.1621 20.4461C44.8933 17.9353 45.0589 14.9519 43.5294 12.0999C41.5378 8.38623 41.1708 5.7051 41.3246 3.80029C41.3876 3.02131 41.5349 2.35994 41.7159 1.77953C41.9035 1.17814 42.1276 0.663368 42.3319 0.194246L42.4162 0H39.8522Z" fill="#8000FF"></path><path fill-rule="evenodd" clip-rule="evenodd" d="M47.9846 0C47.6254 0.900928 47.2341 2.11138 47.1137 3.60538C46.9163 6.05361 47.4273 9.1962 49.597 13.2424C50.7329 15.3604 50.6597 17.6404 50.0401 19.7691C49.4573 21.7715 48.4132 23.5497 47.586 24.7355H50.3937C51.0979 23.5481 51.8205 22.0751 52.2945 20.4461C53.0256 17.9353 53.1912 14.9519 51.6618 12.0999C49.6701 8.38623 49.3031 5.7051 49.4569 3.80029C49.5199 3.02131 49.6672 2.35994 49.8482 1.77953C50.0359 1.17814 50.2599 0.663368 50.4642 0.194246L50.5485 0H47.9846Z" fill="#8000FF"></path><path fill-rule="evenodd" clip-rule="evenodd" d="M56.1166 0C55.7575 0.900928 55.3662 2.11138 55.2458 3.60538C55.0483 6.05361 55.5594 9.1962 57.7291 13.2424C58.8649 15.3604 58.7918 17.6404 58.1722 19.7691C57.5894 21.7715 56.5453 23.5497 55.7181 24.7355H58.5258C59.23 23.5481 59.9526 22.0751 60.4265 20.4461C61.1577 17.9353 61.3233 14.9519 59.7938 12.0999C57.8022 8.38623 57.4352 5.7051 57.589 3.80029C57.652 3.02131 57.7993 2.35994 57.9803 1.77953C58.1679 1.17814 58.392 0.663368 58.5963 0.194246L58.6806 0H56.1166Z" fill="#8000FF"></path></svg>